<svg fill="#861001" xmlns:dc="http://purl.org/dc/elements/1.1/" xmlns:cc="http://creativecommons.org/ns#" xmlns:rdf="http://www.w3.org/1999/02/22-rdf-syntax-ns#" xmlns:svg="http://www.w3.org/2000/svg" xmlns="http://www.w3.org/2000/svg" xmlns:sodipodi="http://sodipodi.sourceforge.net/DTD/sodipodi-0.dtd" xmlns:inkscape="http://www.inkscape.org/namespaces/inkscape" version="1.1" x="0px" y="0px" viewBox="0 0 100 100"><g transform="translate(0,-952.36218)"><path style="font-size:medium;font-style:normal;font-variant:normal;font-weight:normal;font-stretch:normal;text-indent:0;text-align:start;text-decoration:none;line-height:normal;letter-spacing:normal;word-spacing:normal;text-transform:none;direction:ltr;block-progression:tb;writing-mode:lr-tb;text-anchor:start;baseline-shift:baseline;opacity:1;color:#000000;fill:#861001;fill-opacity:1;stroke:none;stroke-width:2;marker:none;visibility:visible;display:inline;overflow:visible;enable-background:accumulate;font-family:Sans;-inkscape-font-specification:Sans" d="M 18 39 C 11.936716 39 7 43.93669 7 50 C 7 56.0632 11.936711 61 18 61 C 24.0633 61 29 56.0632 29 50 C 29 43.93669 24.063295 39 18 39 z M 50 39 C 43.936705 39 39 43.93669 39 50 C 39 56.0632 43.9367 61 50 61 C 56.063289 61 61 56.0632 61 50 C 61 43.93669 56.063284 39 50 39 z M 82 39 C 75.936705 39 71 43.93669 71 50 C 71 56.0632 75.9367 61 82 61 C 84.506598 61 86.836574 60.13475 88.6875 58.71875 A 1.0031887 1.0031887 0 0 0 87.46875 57.125 C 85.953072 58.2846 84.059732 59 82 59 C 77.01759 59 73 54.9824 73 50 C 73 45.01757 77.017585 41 82 41 C 86.982402 41 91 45.01757 91 50 A 1.0001 1.0001 0 1 0 93 50 C 93 43.93669 88.063284 39 82 39 z M 18 41 C 22.982415 41 27 45.01757 27 50 C 27 54.9824 22.98241 59 18 59 C 13.017603 59 9 54.9824 9 50 C 9 45.01757 13.017598 41 18 41 z M 50 41 C 54.982402 41 59 45.01757 59 50 C 59 54.9824 54.982397 59 50 59 C 45.01759 59 41 54.9824 41 50 C 41 45.01757 45.017585 41 50 41 z " transform="translate(0,952.36218)"></path></g></svg>